<?xml version="1.0" encoding="UTF-8"?>
<svg version="1.1" xmlns="http://www.w3.org/2000/svg" width="149" height="148">
<path d="M0 0 C49.17 0 98.34 0 149 0 C149 48.84 149 97.68 149 148 C99.83 148 50.66 148 0 148 C0 99.16 0 50.32 0 0 Z " fill="#6C429C" transform="translate(0,0)"/>
<path d="M0 0 C0.81056854 -0.00014603 1.62113708 -0.00029205 2.45626831 -0.0004425 C5.11288204 0.00024945 7.76942404 0.00800801 10.42602539 0.01586914 C12.27690086 0.01773587 14.12777682 0.01915857 15.97865295 0.02015686 C20.83327618 0.02396195 25.68786914 0.03377497 30.54248047 0.04486084 C35.50300691 0.05511825 40.46353826 0.05966374 45.42407227 0.06469727 C55.14478863 0.07539914 64.86548261 0.0924513 74.58618164 0.11352539 C74.65615714 10.26785369 74.70923165 20.42212321 74.74161816 30.5766449 C74.75717385 35.29345305 74.77822396 40.01009443 74.8125 44.72680664 C74.84545824 49.29153039 74.86311022 53.85609526 74.87081337 58.42092896 C74.87629227 60.14936824 74.88698778 61.87780034 74.90337181 63.60617065 C75.11490876 86.8791098 70.52052635 107.24774496 54.58618164 125.11352539 C50.36636868 123.4538178 47.46016443 120.34647041 44.28930664 117.22290039 C43.69567322 116.64066711 43.10203979 116.05843384 42.49041748 115.45855713 C41.24040867 114.22740115 39.99325332 112.99334216 38.7487793 111.7565918 C36.84260866 109.86988677 34.91619043 108.00557395 32.98852539 106.14086914 C31.77497242 104.94037245 30.56268865 103.73859111 29.35180664 102.53540039 C28.77376282 101.98205017 28.19571899 101.42869995 27.60015869 100.85858154 C23.63599529 96.8493244 23.58618164 96.20081399 23.58618164 90.11352539 C17.64618164 90.11352539 11.70618164 90.11352539 5.58618164 90.11352539 C5.58618164 85.49352539 5.58618164 80.87352539 5.58618164 76.11352539 C10.53618164 76.11352539 15.48618164 76.11352539 20.58618164 76.11352539 C20.58618164 74.46352539 20.58618164 72.81352539 20.58618164 71.11352539 C15.63618164 71.11352539 10.68618164 71.11352539 5.58618164 71.11352539 C5.58618164 66.49352539 5.58618164 61.87352539 5.58618164 57.11352539 C10.86618164 57.11352539 16.14618164 57.11352539 21.58618164 57.11352539 C21.58618164 55.46352539 21.58618164 53.81352539 21.58618164 52.11352539 C14.32618164 52.11352539 7.06618164 52.11352539 -0.41381836 52.11352539 C-0.41381836 66.30352539 -0.41381836 80.49352539 -0.41381836 95.11352539 C-0.74381836 95.11352539 -1.07381836 95.11352539 -1.41381836 95.11352539 C-1.41269043 94.38762207 -1.4115625 93.66171875 -1.41040039 92.91381836 C-1.42255356 89.60445704 -1.48025461 86.2973775 -1.53881836 82.98852539 C-1.53624023 81.84641602 -1.53366211 80.70430664 -1.53100586 79.52758789 C-1.55678711 78.41899414 -1.58256836 77.31040039 -1.60913086 76.16821289 C-1.62484131 74.64429932 -1.62484131 74.64429932 -1.64086914 73.08959961 C-2.40695469 69.1070948 -2.40695469 69.1070948 -8.41381836 64.11352539 C-8.74381836 74.34352539 -9.07381836 84.57352539 -9.41381836 95.11352539 C-9.74381836 95.11352539 -10.07381836 95.11352539 -10.41381836 95.11352539 C-10.41381836 80.92352539 -10.41381836 66.73352539 -10.41381836 52.11352539 C-12.88881836 52.60852539 -12.88881836 52.60852539 -15.41381836 53.11352539 C-15.74381836 64.00352539 -16.07381836 74.89352539 -16.41381836 86.11352539 C-17.40381836 85.61852539 -17.40381836 85.61852539 -18.41381836 85.11352539 C-18.2986084 84.28965332 -18.18339844 83.46578125 -18.06469727 82.61694336 C-15.63684679 64.87630388 -15.63684679 64.87630388 -21.84036255 48.81356812 C-27.48494718 42.28162091 -34.68436097 34.97825409 -42.41381836 31.11352539 C-42.41381836 30.45352539 -42.41381836 29.79352539 -42.41381836 29.11352539 C-43.07381836 29.11352539 -43.73381836 29.11352539 -44.41381836 29.11352539 C-44.41381836 28.45352539 -44.41381836 27.79352539 -44.41381836 27.11352539 C-45.07381836 27.11352539 -45.73381836 27.11352539 -46.41381836 27.11352539 C-46.41381836 26.45352539 -46.41381836 25.79352539 -46.41381836 25.11352539 C-47.73381836 24.45352539 -49.05381836 23.79352539 -50.41381836 23.11352539 C-50.19475898 19.45394522 -49.64338137 18.31851744 -46.85913086 15.83227539 C-32.19884658 6.03575601 -17.91579299 -0.08577495 0 0 Z " fill="#5C2D91" transform="translate(74.413818359375,-0.113525390625)"/>
<path d="M0 0 C0.33 0 0.66 0 1 0 C1 22.44 1 44.88 1 68 C-20.78 68 -42.56 68 -65 68 C-65 67.67 -65 67.34 -65 67 C-63.43765625 66.70609375 -63.43765625 66.70609375 -61.84375 66.40625 C-41.33233482 62.24752017 -23.80355477 52.58666715 -11.90234375 34.87890625 C-5.21079961 24.12646911 -1.32657816 12.59551048 0 0 Z " fill="#FDFCFD" transform="translate(148,80)"/>
<path d="M0 0 C22.11 0 44.22 0 67 0 C67 22.44 67 44.88 67 68 C66.67 68 66.34 68 66 68 C65.87044922 66.81857422 65.87044922 66.81857422 65.73828125 65.61328125 C63.23603116 46.21510393 54.21180649 28.95152354 38.9609375 16.5234375 C26.90748601 7.75462486 14.54455385 3.32223969 0 1 C0 0.67 0 0.34 0 0 Z " fill="#FCFCFD" transform="translate(82,0)"/>
<path d="M0 0 C21.78 0 43.56 0 66 0 C66 0.33 66 0.66 66 1 C65.35675781 1.08636719 64.71351562 1.17273438 64.05078125 1.26171875 C45.3894837 4.1634041 28.42480631 13.30075305 16.5234375 28.07421875 C8.1753038 39.6471332 3.39053808 51.01325525 1 65 C0.67 65 0.34 65 0 65 C0 43.55 0 22.1 0 0 Z " fill="#FDFDFD" transform="translate(0,0)"/>
<path d="M0 0 C0.33 0 0.66 0 1 0 C1.1959375 0.969375 1.391875 1.93875 1.59375 2.9375 C5.94265418 22.97172098 15.71419701 40.75823645 33.296875 52.1328125 C43.70327455 58.41603013 53.96284415 62.23051481 66 64 C66 64.33 66 64.66 66 65 C44.22 65 22.44 65 0 65 C0 43.55 0 22.1 0 0 Z " fill="#FDFDFE" transform="translate(0,83)"/>
<path d="M0 0 C1.65 0 3.3 0 5 0 C5 14.19 5 28.38 5 43 C-2 43 -2 43 -3.84521484 41.38623047 C-4.29590332 40.63744629 -4.7465918 39.88866211 -5.2109375 39.1171875 C-5.73429687 38.27800781 -6.25765625 37.43882813 -6.796875 36.57421875 C-7.31765625 35.68347656 -7.8384375 34.79273438 -8.375 33.875 C-9.4243013 32.16395341 -10.47378478 30.45301853 -11.5234375 28.7421875 C-12.67070313 26.84726563 -13.81796875 24.95234375 -15 23 C-17.97 18.38 -20.94 13.76 -24 9 C-24.33 20.22 -24.66 31.44 -25 43 C-26.65 43 -28.3 43 -30 43 C-30 29.14 -30 15.28 -30 1 C-23 1 -23 1 -21.04663086 2.77880859 C-20.54526611 3.60203613 -20.04390137 4.42526367 -19.52734375 5.2734375 C-18.66278564 6.64387207 -18.66278564 6.64387207 -17.78076172 8.04199219 C-17.19311035 9.01813477 -16.60545898 9.99427734 -16 11 C-14.75405207 12.93146424 -13.50533366 14.86114399 -12.25390625 16.7890625 C-11.02108089 18.73288238 -9.79061934 20.67820341 -8.5625 22.625 C-7.92634766 23.62917969 -7.29019531 24.63335937 -6.63476562 25.66796875 C-5.0877316 28.11065406 -3.54284868 30.55466986 -2 33 C-1.97494385 32.03586182 -1.9498877 31.07172363 -1.92407227 30.07836914 C-1.83014694 26.51312158 -1.72989061 22.94807567 -1.62768555 19.38305664 C-1.58428015 17.83785711 -1.54260929 16.29260786 -1.50268555 14.74731445 C-1.44511801 12.53060904 -1.38138576 10.3141552 -1.31640625 8.09765625 C-1.29133751 7.05545677 -1.29133751 7.05545677 -1.26576233 5.99220276 C-1.11387171 1.11387171 -1.11387171 1.11387171 0 0 Z " fill="#F1EEF5" transform="translate(59,52)"/>
<path d="M0 0 C7.26 0 14.52 0 22 0 C22 1.65 22 3.3 22 5 C16.72 5 11.44 5 6 5 C6 9.62 6 14.24 6 19 C10.95 19 15.9 19 21 19 C21 20.65 21 22.3 21 24 C16.05 24 11.1 24 6 24 C6 28.62 6 33.24 6 38 C11.61 38 17.22 38 23 38 C23 39.65 23 41.3 23 43 C15.41 43 7.82 43 0 43 C0 28.81 0 14.62 0 0 Z " fill="#EDE9F2" transform="translate(74,52)"/>
<path d="M0 0 C9.57 0 19.14 0 29 0 C29 1.32 29 2.64 29 4 C25.04 4 21.08 4 17 4 C17 16.54 17 29.08 17 42 C15.35 42 13.7 42 12 42 C12 29.46 12 16.92 12 4 C8.04 4 4.08 4 0 4 C0 2.68 0 1.36 0 0 Z " fill="#FBFAFC" transform="translate(101,53)"/>
<path d="M0 0 C3.45928744 1.72964372 5.14412493 2.89537573 7.75 5.5625 C8.67039062 6.49255859 8.67039062 6.49255859 9.609375 7.44140625 C11 9 11 9 11 10 C7.37 10 3.74 10 0 10 C0 6.7 0 3.4 0 0 Z " fill="#6A409B" transform="translate(80,79)"/>
<path d="M0 0 C1.67542976 0.28604898 3.34385343 0.61781233 5 1 C5 2.65 5 4.3 5 6 C3.35 6 1.7 6 0 6 C-0.38218767 4.34385343 -0.71395102 2.67542976 -1 1 C-0.67 0.67 -0.34 0.34 0 0 Z " fill="#F6F5F9" transform="translate(15,89)"/>
</svg>
